<?xml version="1.0" standalone="no"?>
<!DOCTYPE svg PUBLIC "-//W3C//DTD SVG 20010904//EN"
 "http://www.w3.org/TR/2001/REC-SVG-20010904/DTD/svg10.dtd">
<svg version="1.0" xmlns="http://www.w3.org/2000/svg"
 width="2289.000000pt" height="2475.000000pt" viewBox="0 0 2289.000000 2475.000000"
 preserveAspectRatio="xMidYMid meet">

<g transform="translate(0.000000,2475.000000) scale(0.100000,-0.100000)"
fill="#000000" stroke="none">
<path d="M11185 18508 c-49 -11 -105 -22 -123 -25 -18 -3 -35 -9 -38 -14 -3
-5 -12 -9 -20 -9 -13 0 -149 -65 -234 -111 -48 -27 -145 -98 -180 -131 -161
-158 -254 -281 -322 -424 -21 -45 -38 -87 -38 -93 0 -6 -4 -19 -9 -29 -9 -18
-31 -91 -53 -177 -17 -71 -17 -434 1 -500 20 -75 41 -147 50 -170 27 -69 72
-160 109 -223 54 -94 55 -115 1 -74 -26 20 -192 105 -224 114 -11 4 -45 15
-75 26 -136 48 -355 72 -498 54 -53 -7 -112 -12 -131 -12 -36 0 -43 -2 -181
-47 -176 -57 -357 -170 -488 -304 -50 -52 -106 -114 -124 -139 -18 -25 -35
-47 -38 -50 -35 -31 -131 -227 -163 -335 -45 -147 -52 -198 -51 -395 0 -243
33 -389 131 -578 61 -118 140 -221 257 -337 80 -80 126 -116 223 -173 169
-101 279 -143 458 -172 81 -14 395 -8 465 8 25 6 63 15 85 20 22 5 54 15 70
22 17 7 39 16 50 20 37 14 180 84 217 107 21 13 42 23 48 23 12 0 14 -27 3
-32 -10 -4 -43 -63 -95 -168 -48 -98 -50 -105 -72 -185 -10 -33 -22 -78 -29
-100 -17 -56 -15 -422 2 -495 58 -240 147 -428 266 -559 18 -20 56 -63 85 -96
30 -33 74 -76 99 -95 130 -102 327 -205 456 -238 22 -6 60 -16 84 -22 113 -30
443 -29 556 1 208 55 341 119 511 244 77 57 194 184 277 300 49 69 137 242
137 270 0 8 5 17 10 20 6 3 10 16 10 27 0 12 4 35 10 52 34 113 41 161 42 332
2 172 -11 278 -42 359 -4 11 -13 38 -20 60 -18 57 -88 201 -127 263 -28 44
-31 53 -18 58 9 4 23 0 33 -9 21 -19 154 -85 242 -121 138 -57 223 -70 445
-70 229 -1 275 5 442 60 65 21 198 90 293 152 176 115 378 357 454 542 30 74
34 84 39 105 3 11 13 45 22 75 29 99 39 183 39 335 -1 171 -18 299 -53 390 -5
11 -14 38 -21 60 -65 206 -292 492 -490 617 -152 96 -290 160 -390 180 -201
41 -471 41 -645 0 -90 -21 -306 -115 -378 -165 -43 -30 -51 -8 -16 43 103 152
180 383 193 575 7 94 -7 313 -24 376 -6 24 -16 62 -22 84 -16 61 -36 116 -71
195 -10 22 -53 97 -82 142 -68 107 -259 306 -346 361 -112 71 -248 141 -295
153 -16 4 -33 10 -39 14 -5 4 -23 10 -40 13 -16 3 -73 15 -125 26 -128 28
-354 28 -485 -1z m397 -133 c216 -29 311 -65 505 -192 119 -78 281 -258 354
-393 30 -55 73 -161 87 -215 6 -22 16 -58 22 -80 17 -58 24 -357 10 -430 -6
-33 -13 -73 -16 -90 -3 -16 -9 -39 -13 -50 -5 -11 -16 -45 -26 -75 -33 -97
-158 -307 -210 -350 -30 -25 -17 -59 46 -126 91 -94 108 -95 209 -14 66 53
248 147 335 173 156 48 312 64 463 47 103 -11 123 -14 222 -40 63 -17 135 -49
250 -113 117 -65 241 -180 344 -320 61 -83 146 -242 146 -274 0 -10 4 -23 8
-28 9 -10 34 -116 52 -219 29 -168 -7 -410 -91 -607 -74 -174 -246 -373 -417
-482 -182 -117 -284 -154 -478 -178 -169 -20 -419 4 -529 50 -11 5 -36 15 -55
22 -19 7 -52 23 -72 36 -21 13 -42 23 -48 23 -11 0 -132 80 -180 119 -14 11
-40 21 -58 21 -28 0 -44 -11 -98 -65 -36 -37 -64 -75 -64 -86 0 -11 31 -64 69
-117 111 -157 166 -276 203 -447 27 -126 14 -455 -22 -550 -4 -11 -13 -38 -20
-60 -38 -126 -167 -326 -284 -440 -66 -65 -152 -130 -218 -165 -29 -15 -70
-37 -90 -48 -43 -25 -157 -64 -243 -83 -39 -9 -123 -14 -240 -14 -117 0 -201
5 -240 14 -405 93 -730 387 -848 766 -44 141 -49 182 -49 352 1 157 5 197 39
323 34 125 87 226 221 418 17 24 28 50 25 61 -2 10 -33 46 -68 81 -81 80 -96
81 -194 7 -93 -69 -244 -147 -351 -179 -214 -65 -516 -60 -725 13 -49 17 -204
96 -226 115 -8 8 -21 14 -27 14 -7 0 -12 5 -12 10 0 6 -7 10 -16 10 -25 0
-213 195 -275 285 -130 188 -183 354 -196 610 -11 238 57 479 186 665 58 82
185 219 248 266 105 80 248 156 348 186 98 30 131 37 243 49 277 29 558 -47
796 -217 49 -35 95 -64 103 -64 48 0 163 112 163 159 0 16 -20 53 -53 97 -30
39 -57 77 -60 85 -4 8 -18 32 -32 54 -28 45 -65 123 -65 136 0 5 -4 17 -9 27
-42 83 -62 212 -62 397 0 138 4 184 20 245 11 41 23 86 26 100 17 63 74 187
117 252 45 67 135 177 193 234 108 106 286 206 465 262 30 9 107 21 225 35 68
8 130 6 237 -8z"/>
<path d="M11245 18046 c-22 -7 -60 -19 -85 -27 -44 -13 -115 -50 -195 -101
-38 -24 -136 -118 -173 -167 -9 -13 -26 -35 -38 -49 -102 -130 -161 -385 -132
-562 37 -223 107 -345 313 -550 69 -69 125 -129 125 -135 0 -5 -280 -290 -622
-632 -424 -422 -637 -629 -668 -645 -39 -20 -59 -23 -150 -23 -88 1 -112 4
-151 23 -88 43 -139 148 -138 280 0 66 5 86 32 142 43 87 83 116 184 137 77
16 84 16 157 -2 57 -14 88 -29 118 -54 29 -25 50 -35 75 -35 31 0 49 15 183
150 166 165 171 176 123 236 -16 18 -31 34 -35 36 -3 2 -26 18 -50 36 -53 41
-165 101 -216 116 -217 65 -449 52 -617 -33 -142 -71 -240 -157 -336 -292 -38
-54 -89 -157 -89 -180 0 -7 -4 -16 -9 -19 -24 -15 -40 -328 -21 -416 66 -300
301 -547 599 -627 73 -20 339 -22 396 -3 136 44 173 62 275 128 30 20 113 94
184 164 70 70 133 128 140 128 14 0 1235 -1222 1264 -1266 70 -103 66 -249
-10 -360 -50 -73 -201 -116 -320 -90 -120 25 -176 74 -215 186 -34 95 -8 218
64 304 57 69 53 78 -117 247 -135 134 -153 149 -184 149 -30 0 -42 -9 -92 -65
-76 -86 -124 -170 -156 -275 -49 -157 -57 -235 -37 -362 19 -120 63 -245 106
-304 13 -17 23 -34 23 -37 0 -20 167 -192 215 -222 145 -91 222 -119 370 -136
107 -13 254 -3 335 23 99 31 252 119 323 187 45 42 155 185 167 216 4 11 17
41 28 65 78 176 82 396 11 600 -43 124 -112 219 -278 385 -61 60 -111 115
-111 122 0 13 1196 1215 1250 1255 19 15 66 34 104 44 59 15 78 15 134 5 74
-14 140 -41 164 -68 9 -10 28 -41 42 -69 23 -46 26 -64 26 -162 0 -63 -4 -113
-10 -117 -5 -3 -10 -13 -10 -20 0 -29 -56 -95 -105 -122 -46 -25 -59 -27 -155
-28 -114 0 -163 16 -222 70 -18 16 -39 25 -60 25 -29 0 -50 -17 -181 -148
-134 -134 -147 -150 -147 -183 0 -28 8 -43 43 -76 75 -73 234 -161 337 -187
114 -29 304 -28 435 1 106 24 284 131 367 221 156 169 229 351 227 570 0 108
-21 238 -42 258 -4 4 -7 15 -7 25 0 20 -61 139 -97 189 -77 105 -214 217 -333
271 -52 24 -79 33 -176 58 -84 22 -340 9 -396 -20 -10 -5 -25 -9 -34 -9 -20 0
-96 -40 -184 -96 -36 -23 -123 -101 -195 -173 -71 -72 -135 -131 -140 -131 -6
0 -290 279 -631 619 -698 699 -684 682 -684 818 0 116 49 208 137 258 44 25
57 27 164 26 109 0 120 -2 169 -28 59 -32 83 -61 116 -142 43 -104 26 -206
-53 -319 -29 -41 -42 -69 -38 -81 6 -19 280 -297 309 -313 39 -22 99 23 173
127 148 209 186 516 92 750 -4 11 -11 30 -14 43 -13 47 -126 200 -194 264 -90
86 -243 174 -331 192 -14 2 -43 9 -65 15 -57 15 -301 13 -350 -3z m512 -2278
c172 -172 313 -317 313 -323 0 -12 -623 -635 -636 -635 -14 0 -634 624 -634
638 0 16 618 632 634 632 6 0 152 -141 323 -312z"/>
<path d="M6300 11050 l-185 -5 -3 -1234 c-1 -679 2 -1239 6 -1243 7 -7 477
-13 585 -9 16 1 17 34 17 541 0 297 3 540 8 540 4 -1 16 -20 27 -43 15 -31 27
-43 45 -45 22 -2 30 5 50 45 l25 48 5 -539 5 -540 30 -8 c38 -10 536 -10 553
1 9 6 12 275 12 1246 0 681 -1 1239 -2 1241 -6 5 -60 6 -244 5 l-190 -1 -23
-52 c-12 -29 -26 -62 -30 -73 -5 -11 -13 -31 -19 -45 -6 -14 -41 -99 -78 -190
-36 -91 -72 -176 -79 -189 l-12 -24 -15 24 c-9 13 -55 121 -103 239 -105 257
-122 297 -132 303 -18 11 -78 13 -253 7z"/>
<path d="M9497 11052 c-16 -3 -17 -93 -17 -1247 l0 -1244 47 -7 c71 -11 1032
5 1073 18 67 21 104 43 156 95 29 29 60 68 68 85 53 118 49 46 54 943 4 926
-1 1047 -43 1139 -45 98 -136 172 -250 205 -27 8 -203 12 -556 14 -283 1 -523
1 -532 -1z m744 -588 l24 -26 3 -619 c3 -702 5 -679 -68 -699 -23 -6 -56 -10
-73 -8 l-32 3 -3 688 -2 687 63 0 c55 0 67 -3 88 -26z"/>
<path d="M11485 11050 l-260 -5 -3 -1242 -2 -1243 27 0 c16 0 145 -1 288 -3
144 -2 266 -2 273 1 9 3 12 283 12 1243 l0 1239 -26 10 c-14 6 -31 9 -37 8 -7
-1 -129 -5 -272 -8z"/>
<path d="M12520 11048 c-89 -11 -129 -24 -185 -61 -72 -48 -118 -108 -149
-195 l-26 -73 0 -914 c0 -984 -2 -944 51 -1050 26 -51 44 -72 99 -115 57 -45
85 -60 108 -60 10 0 22 -4 27 -9 6 -6 173 -11 400 -12 415 -3 422 -2 518 48
72 37 136 121 176 233 14 38 28 479 17 524 l-6 26 -289 0 c-219 0 -291 -3
-298 -12 -5 -7 -8 -47 -7 -88 3 -101 -11 -166 -38 -173 -37 -10 -130 0 -139
14 -10 16 -12 1301 -3 1337 6 20 12 22 80 22 93 0 97 -6 104 -160 l5 -115 287
-3 c284 -2 287 -2 299 19 8 15 10 91 6 258 -4 214 -6 242 -28 305 -38 113
-132 201 -259 242 -33 11 -679 21 -750 12z"/>
<path d="M15830 11050 l-275 -5 -3 -1241 c-2 -1147 -1 -1242 14 -1248 22 -8
1170 -3 1179 5 3 4 6 125 6 270 0 228 -2 265 -15 275 -11 8 -102 12 -294 13
-152 0 -280 1 -284 1 -5 0 -8 432 -8 960 0 938 0 960 -19 970 -11 5 -21 9 -23
8 -2 -1 -127 -5 -278 -8z"/>
<path d="M7830 9806 l0 -1245 43 -6 c23 -3 335 -5 692 -3 l650 3 3 269 c1 159
-2 274 -7 279 -6 6 -162 9 -384 9 -286 -1 -378 2 -386 11 -8 10 -16 330 -12
434 1 10 76 13 324 15 l322 3 3 277 2 276 -52 5 c-29 3 -171 4 -316 3 -181 -2
-266 0 -275 8 -9 8 -11 50 -7 176 l5 165 390 5 390 5 3 278 2 277 -695 0 -695
0 0 -1244z"/>
<path d="M14120 11040 c-8 -5 -25 -10 -37 -10 -62 0 -178 -95 -220 -181 -55
-109 -53 -66 -53 -1214 0 -843 2 -1065 12 -1073 15 -12 468 -17 549 -6 l49 7
2 501 3 501 85 0 85 0 3 -501 c2 -469 3 -502 20 -506 9 -3 141 -6 293 -7 232
-2 277 0 288 12 19 23 11 2158 -8 2207 -57 145 -139 223 -282 269 -45 14 -767
15 -789 1z m461 -567 c11 -12 14 -55 14 -177 l0 -161 -85 0 -85 0 -3 154 c-3
192 1 201 87 201 42 0 62 -5 72 -17z"/>
<path d="M10400 8159 c-25 -6 -64 -19 -87 -30 -24 -10 -46 -19 -49 -19 -4 0
-50 -29 -103 -64 -91 -61 -199 -157 -287 -256 -98 -110 -195 -296 -213 -411
-6 -33 -13 -64 -16 -69 -4 -6 1 -34 9 -64 23 -79 95 -146 156 -146 25 0 25 6
0 55 -23 44 -25 92 -9 179 14 73 17 84 54 161 70 148 219 320 378 439 95 70
175 112 257 133 57 14 62 14 81 -3 22 -20 21 -45 -6 -150 -25 -99 -172 -398
-256 -521 -16 -23 -29 -44 -29 -48 0 -3 -11 -21 -25 -39 -14 -18 -25 -36 -25
-40 0 -4 -30 -53 -67 -109 -37 -56 -70 -107 -73 -112 -3 -6 -32 -50 -65 -99
-33 -48 -65 -95 -70 -104 -6 -9 -28 -44 -51 -77 -22 -33 -53 -81 -67 -106
l-27 -45 33 -31 c51 -47 93 -73 120 -73 30 0 48 22 173 210 158 237 367 508
392 509 18 1 15 -24 -12 -77 -13 -26 -28 -58 -33 -72 -6 -14 -18 -42 -27 -63
-9 -21 -16 -48 -16 -62 0 -29 41 -79 83 -100 30 -15 33 -15 45 2 100 145 326
413 337 401 3 -2 -16 -47 -41 -99 -26 -52 -50 -103 -54 -114 -4 -11 -13 -33
-20 -50 -20 -50 -40 -134 -40 -171 0 -73 82 -184 148 -201 42 -10 46 12 7 42
-34 25 -36 31 -31 64 4 20 9 54 12 76 3 22 16 64 30 93 13 29 24 57 24 62 0 9
40 85 69 130 33 52 41 65 48 80 4 8 10 17 13 20 4 3 24 32 44 64 39 61 215
295 249 331 38 40 40 65 10 97 -21 22 -36 28 -68 28 -39 0 -46 -6 -236 -192
-192 -191 -243 -244 -328 -346 -24 -28 -47 -52 -52 -52 -12 0 -11 28 1 43 6 7
38 57 72 112 34 55 64 102 67 105 4 3 35 47 69 98 59 88 62 95 47 112 -9 10
-36 23 -60 30 -41 12 -47 11 -87 -13 -54 -32 -143 -125 -395 -410 -69 -79 -73
-59 -8 43 25 39 45 72 45 74 0 2 23 43 52 92 70 122 104 184 121 219 62 130
82 176 97 229 17 60 16 121 -1 132 -5 3 -9 14 -9 24 0 26 -85 112 -130 133
-48 21 -116 28 -170 16z"/>
<path d="M12091 8051 c-32 -33 -82 -95 -111 -138 -30 -43 -59 -81 -64 -85 -6
-4 -56 -8 -112 -8 -73 0 -105 4 -120 15 -27 21 -60 18 -94 -7 -24 -18 -48 -23
-121 -26 -66 -3 -92 -8 -96 -19 -9 -22 2 -26 74 -28 38 -2 71 -3 76 -4 14 -2
7 -22 -26 -74 -18 -29 -36 -59 -40 -67 -4 -8 -16 -28 -26 -45 -31 -49 -27 -88
14 -124 41 -35 55 -39 55 -13 0 9 11 34 25 54 14 20 25 39 25 42 0 10 123 181
144 199 16 15 30 16 80 11 34 -4 64 -9 69 -11 7 -4 -23 -65 -74 -148 -26 -42
-134 -261 -164 -330 -58 -136 -81 -172 -158 -252 -88 -91 -153 -136 -189 -131
-18 2 -22 9 -21 28 4 34 31 95 70 158 18 29 33 55 33 57 0 3 16 27 35 54 47
66 54 102 23 131 -45 43 -65 52 -87 40 -12 -6 -21 -18 -21 -26 0 -9 -8 -28
-19 -42 -19 -28 -62 -105 -112 -200 -16 -29 -36 -76 -45 -106 -16 -51 -16 -57
0 -107 43 -130 121 -119 289 42 45 43 85 79 89 79 3 0 3 -12 -2 -27 -21 -69
-30 -129 -30 -194 0 -61 4 -76 28 -109 25 -36 59 -60 82 -60 6 0 10 28 10 61
0 34 5 80 11 103 27 104 33 125 56 191 13 39 33 89 43 112 11 24 20 46 20 49
0 13 133 274 139 274 12 0 81 -26 87 -33 4 -4 21 -7 39 -7 17 0 40 -6 50 -14
18 -13 17 -18 -40 -91 -78 -100 -104 -138 -98 -148 9 -15 40 13 108 98 39 48
79 98 91 112 18 22 25 25 61 18 23 -3 49 -12 59 -20 17 -12 17 -14 -1 -41 -10
-16 -51 -68 -90 -115 -40 -48 -101 -129 -137 -180 -125 -180 -133 -232 -47
-320 36 -37 55 -49 77 -49 51 0 128 61 266 213 44 48 83 87 88 87 4 0 8 -9 8
-20 0 -30 36 -96 62 -114 56 -40 151 33 312 241 48 61 88 94 66 53 -5 -10 -10
-46 -10 -79 0 -57 2 -61 37 -90 44 -36 76 -39 136 -11 50 24 85 55 153 135 76
90 91 115 73 126 -10 6 -20 2 -34 -14 -11 -13 -49 -57 -83 -99 -66 -78 -106
-108 -141 -108 -31 0 -27 22 26 128 57 116 59 145 12 183 -47 39 -71 37 -102
-8 -14 -21 -36 -49 -49 -63 -13 -14 -58 -65 -100 -115 -109 -129 -155 -172
-170 -157 -14 14 4 83 33 124 11 14 19 29 19 32 0 14 100 146 156 203 60 64
63 66 102 60 21 -4 42 -4 45 -1 12 12 -34 64 -78 90 -41 24 -47 25 -80 12 -53
-19 -154 -122 -295 -302 -69 -87 -146 -182 -173 -211 -26 -29 -57 -65 -68 -80
-33 -41 -118 -105 -141 -105 -18 0 -19 4 -13 37 8 44 54 118 149 238 118 150
166 225 166 260 0 60 -60 121 -138 141 -31 8 -63 16 -70 19 -8 3 9 34 48 88
33 47 60 87 60 91 0 3 15 28 33 54 38 53 67 131 67 177 0 58 -63 105 -140 105
-27 0 -50 3 -50 8 1 4 23 30 50 57 29 29 50 59 50 72 0 32 -58 73 -105 73 -32
0 -44 -8 -94 -59z m161 -388 c22 -20 18 -29 -69 -161 l-75 -112 -52 6 c-77 10
-106 28 -106 66 0 41 46 112 116 178 l55 52 57 -7 c31 -4 65 -14 74 -22z"/>
</g>
</svg>
