<?xml version="1.0" standalone="no"?>
<!DOCTYPE svg PUBLIC "-//W3C//DTD SVG 20010904//EN"
 "http://www.w3.org/TR/2001/REC-SVG-20010904/DTD/svg10.dtd">
<svg version="1.0" xmlns="http://www.w3.org/2000/svg"
 width="510.000000pt" height="535.000000pt" viewBox="0 0 510.000000 535.000000"
 preserveAspectRatio="xMidYMid meet">

<g transform="translate(0.000000,535.000000) scale(0.100000,-0.100000)"
fill="#000000" stroke="none">
<path d="M2329 5252 c-136 -36 -275 -148 -339 -272 -43 -85 -60 -155 -60 -249
0 -100 15 -162 59 -248 17 -34 31 -65 31 -68 0 -3 -19 5 -42 19 -81 47 -165
68 -268 68 -52 0 -115 -5 -140 -12 -74 -20 -166 -70 -224 -122 -230 -205 -245
-550 -33 -774 168 -178 420 -223 637 -114 33 16 62 30 65 30 3 0 -8 -26 -24
-57 -44 -89 -61 -157 -61 -252 0 -150 43 -261 143 -367 70 -76 167 -137 252
-159 92 -24 229 -20 314 9 174 59 310 203 356 377 33 124 12 290 -50 398 -14
24 -24 46 -22 48 2 2 39 -13 81 -33 316 -150 688 36 761 382 18 87 18 131 0
219 -33 156 -141 298 -280 368 -97 48 -144 59 -255 59 -104 -1 -187 -22 -267
-68 -24 -14 -43 -23 -43 -20 0 2 19 44 42 92 41 85 43 94 46 195 5 119 -9 181
-59 281 -38 76 -147 185 -225 226 -117 61 -265 78 -395 44z m266 -56 c109 -29
200 -92 270 -188 121 -163 118 -415 -5 -570 -17 -20 -30 -41 -30 -46 0 -4 13
-20 28 -35 29 -28 56 -35 67 -17 3 5 34 25 68 44 199 111 446 74 596 -90 289
-316 68 -814 -362 -814 -106 0 -170 22 -312 110 -23 14 -26 13 -55 -15 -16
-16 -30 -32 -30 -36 0 -5 18 -34 40 -65 100 -143 111 -342 29 -506 -11 -21
-46 -66 -79 -101 -143 -154 -372 -197 -560 -105 -90 44 -191 146 -230 232 -70
154 -56 341 37 477 16 24 33 49 36 56 9 14 -39 73 -59 73 -8 0 -35 -15 -62
-34 -101 -73 -243 -102 -374 -76 -267 52 -441 330 -373 595 23 85 62 152 130
221 110 111 253 159 407 136 84 -12 170 -46 224 -87 42 -32 54 -31 88 4 l29
30 -41 60 c-115 172 -114 401 1 558 24 32 60 73 81 91 43 38 140 89 194 101
57 14 191 12 247 -3z"/>
<path d="M2359 5056 c-147 -56 -231 -180 -230 -335 1 -89 35 -172 97 -236 22
-22 50 -53 64 -68 l24 -28 -269 -270 c-213 -212 -278 -272 -306 -279 -20 -6
-43 -8 -50 -6 -8 2 -27 7 -42 10 -56 13 -87 121 -55 191 25 55 123 73 186 35
18 -11 38 -20 46 -20 14 0 136 123 136 137 0 19 -57 63 -115 90 -50 23 -74 27
-140 28 -71 0 -88 -4 -147 -33 -77 -38 -130 -92 -167 -171 -22 -47 -26 -70
-26 -141 0 -72 4 -93 28 -141 32 -67 109 -142 175 -172 37 -17 66 -22 137 -22
78 0 97 4 145 27 30 15 86 57 124 94 l69 65 264 -263 c146 -145 271 -275 279
-290 33 -62 7 -149 -51 -174 -136 -56 -250 72 -170 191 l26 37 -43 46 c-70 77
-98 97 -117 86 -26 -16 -80 -102 -92 -147 -7 -23 -12 -72 -11 -109 1 -126 83
-249 204 -303 84 -38 193 -38 275 0 76 34 138 96 174 170 24 50 29 73 29 137
0 112 -25 173 -111 263 -38 40 -69 76 -69 81 0 13 521 530 547 543 30 15 99
14 132 -3 34 -18 51 -54 51 -112 0 -52 -21 -98 -52 -115 -38 -21 -114 -15
-149 10 -27 20 -35 21 -54 11 -36 -19 -126 -127 -119 -143 3 -9 23 -27 43 -42
140 -96 313 -86 436 26 80 74 110 141 110 249 0 76 -4 92 -33 152 -38 77 -92
130 -171 166 -46 22 -71 26 -136 26 -106 0 -171 -29 -266 -121 l-70 -67 -265
264 c-146 146 -272 277 -280 292 -18 34 -18 79 0 123 16 38 37 52 92 60 122
19 193 -93 128 -202 l-25 -44 62 -64 c34 -36 70 -65 79 -65 22 0 63 45 92 100
33 65 38 194 9 270 -28 74 -95 148 -167 185 -49 24 -73 30 -144 32 -55 2 -98
-2 -121 -11z m250 -958 c72 -72 131 -134 131 -137 0 -4 -61 -67 -135 -141
l-135 -135 -135 135 c-74 74 -135 139 -135 145 0 14 252 263 267 264 6 1 70
-58 142 -131z"/>
<path d="M220 1570 l0 -530 125 0 125 0 0 232 c0 219 1 231 16 209 l17 -24 18
24 c18 23 19 19 19 -208 l0 -233 125 0 125 0 0 530 0 531 -91 -3 -91 -3 -48
-115 c-26 -63 -51 -114 -56 -113 -5 0 -31 53 -57 117 l-49 116 -89 0 -89 0 0
-530z"/>
<path d="M940 1570 l0 -530 295 0 295 0 0 115 0 115 -167 2 -168 3 -3 98 -3
97 141 0 140 0 0 120 0 120 -140 0 -140 0 0 75 0 75 170 0 170 0 0 120 0 120
-295 0 -295 0 0 -530z"/>
<path d="M1640 1570 l0 -531 243 3 244 3 37 29 c67 51 67 49 64 509 l-3 412
-23 33 c-46 63 -61 67 -324 70 l-238 3 0 -531z m330 271 c6 -12 10 -118 10
-275 0 -243 -1 -257 -20 -276 -11 -11 -29 -20 -40 -20 -20 0 -20 7 -20 295 l0
295 30 0 c19 0 33 -7 40 -19z"/>
<path d="M2387 2093 c-4 -3 -7 -242 -7 -530 l0 -523 125 0 125 0 0 530 0 530
-118 0 c-65 0 -122 -3 -125 -7z"/>
<path d="M2899 2090 c-46 -13 -78 -41 -99 -84 -19 -40 -20 -60 -20 -437 0
-390 0 -395 23 -439 14 -30 36 -53 62 -67 37 -21 53 -23 206 -23 154 0 169 2
209 23 70 37 90 85 90 219 l0 108 -125 0 -125 0 0 -41 c0 -22 -5 -49 -10 -60
-14 -25 -56 -25 -70 0 -12 24 -14 540 -1 559 5 8 22 12 42 10 33 -3 34 -4 39
-58 l5 -55 120 0 120 0 3 98 c1 53 -2 114 -7 135 -14 49 -68 101 -117 113 -47
10 -309 10 -345 -1z"/>
<path d="M3593 2089 c-43 -12 -90 -62 -103 -107 -6 -23 -10 -210 -10 -489 l0
-453 125 0 125 0 1 208 c1 114 1 210 0 215 0 4 18 7 41 7 l43 0 0 -212 0 -213
128 -3 127 -3 0 453 c0 277 -4 467 -10 490 -13 44 -66 93 -117 107 -46 13
-305 13 -350 0z m217 -304 l0 -75 -40 0 -40 0 0 53 c0 83 7 97 46 97 l34 0 0
-75z"/>
<path d="M4220 1570 l0 -530 250 0 c138 0 250 3 251 8 0 4 2 53 4 110 4 125 8
121 -146 119 l-104 -2 -5 410 -5 410 -122 3 -123 3 0 -531z"/>
<path d="M1951 833 c-124 -74 -229 -217 -233 -319 -2 -39 2 -50 25 -70 35 -30
52 -31 36 -3 -32 60 30 197 129 291 67 62 161 114 187 104 50 -19 -38 -206
-226 -488 -44 -65 -79 -124 -79 -132 0 -18 59 -51 70 -39 4 4 39 55 78 113 39
58 92 128 117 155 l45 50 -16 -40 c-39 -96 -39 -95 -13 -121 l24 -24 43 58
c23 32 58 74 78 93 l35 34 -32 -69 c-43 -92 -45 -148 -6 -182 15 -13 33 -24
40 -24 7 0 4 7 -7 15 -40 30 11 150 131 314 76 103 85 131 41 131 -16 0 -60
-38 -145 -126 -68 -69 -123 -121 -123 -116 0 5 27 49 59 98 59 87 60 89 38
101 -30 16 -41 8 -146 -103 -50 -53 -91 -93 -91 -90 0 4 24 48 53 99 114 200
126 251 65 302 -45 38 -98 34 -177 -12z"/>
<path d="M2741 815 c-17 -20 -38 -47 -48 -61 -15 -23 -22 -25 -82 -25 -85 1
-161 -9 -161 -20 0 -5 14 -9 30 -9 17 0 30 -3 30 -6 0 -3 -12 -28 -27 -54 -23
-41 -25 -51 -14 -64 19 -23 23 -21 48 23 42 73 69 98 101 93 l29 -4 -73 -146
c-54 -109 -84 -157 -115 -184 -36 -33 -79 -50 -79 -32 0 4 19 42 42 84 36 67
40 80 29 94 -19 22 -34 20 -47 -7 -6 -12 -25 -50 -43 -85 -25 -48 -31 -69 -26
-93 12 -55 51 -50 126 18 30 27 40 32 35 18 -4 -11 -10 -40 -13 -65 -4 -38 -1
-49 19 -70 l23 -25 3 30 c5 54 33 138 74 228 44 94 39 91 106 66 l23 -9 -23
-31 c-48 -64 -49 -72 -2 -21 46 48 84 66 98 44 3 -5 -20 -39 -50 -76 -103
-130 -115 -168 -68 -205 24 -19 29 -19 54 -6 15 8 48 37 74 66 26 28 48 50 49
48 2 -2 8 -16 15 -31 19 -44 44 -35 114 42 62 68 64 69 60 37 -3 -23 2 -38 16
-51 19 -17 22 -17 55 -1 32 15 104 91 95 100 -2 3 -26 -18 -52 -46 -58 -61
-78 -55 -46 15 23 48 21 72 -6 83 -10 4 -26 -7 -47 -33 -102 -125 -156 -160
-108 -68 36 67 104 136 127 128 14 -4 12 1 -9 20 -27 25 -29 25 -58 11 -16 -9
-63 -58 -105 -111 -98 -123 -147 -174 -167 -174 -25 0 -8 35 62 130 34 45 61
87 61 94 0 20 -30 56 -48 56 -45 1 -45 16 -3 79 67 98 64 151 -7 151 l-23 0
21 30 c18 25 19 34 10 45 -20 24 -46 17 -79 -20z m81 -165 c-2 -7 -17 -34 -35
-61 -27 -42 -35 -48 -57 -42 -14 3 -28 8 -32 10 -19 10 -5 49 30 84 34 33 42
37 68 30 16 -5 28 -14 26 -21z"/>
</g>
</svg>
