<?xml version="1.0" standalone="no"?>
<!DOCTYPE svg PUBLIC "-//W3C//DTD SVG 20010904//EN"
 "http://www.w3.org/TR/2001/REC-SVG-20010904/DTD/svg10.dtd">
<svg version="1.0" xmlns="http://www.w3.org/2000/svg"
 width="971.000000pt" height="1050.000000pt" viewBox="0 0 971.000000 1050.000000"
 preserveAspectRatio="xMidYMid meet">

<g transform="translate(0.000000,1050.000000) scale(0.100000,-0.100000)"
fill="#000000" stroke="none">
<path d="M4713 7845 c-94 -26 -174 -73 -249 -149 -110 -112 -154 -220 -154
-382 0 -102 17 -173 61 -251 16 -29 29 -55 29 -57 0 -2 -24 9 -52 24 -85 46
-162 63 -268 63 -161 -1 -289 -58 -395 -175 -226 -247 -179 -629 100 -816 84
-56 159 -82 261 -89 104 -7 188 8 278 53 39 19 71 34 73 34 2 0 -12 -30 -31
-67 -47 -93 -56 -133 -56 -244 0 -156 45 -269 150 -377 109 -112 230 -162 391
-162 170 0 314 67 416 192 98 122 127 209 122 372 -4 107 -6 114 -46 199 -23
48 -41 87 -39 87 1 0 33 -15 72 -34 249 -123 545 -38 700 200 57 88 78 165 78
284 1 84 -4 118 -22 172 -44 127 -137 240 -252 305 -156 89 -366 90 -527 3
-29 -15 -53 -26 -53 -24 0 2 13 28 29 57 44 78 61 149 61 251 0 156 -42 262
-147 376 -69 75 -160 129 -259 155 -72 19 -201 18 -271 0z m238 -55 c139 -26
267 -128 336 -268 35 -69 38 -83 41 -178 5 -126 -17 -211 -78 -297 -22 -32
-40 -61 -40 -65 0 -5 15 -23 34 -41 l35 -34 48 35 c194 141 469 118 634 -53
181 -188 184 -473 6 -666 -165 -178 -449 -203 -644 -57 -41 31 -53 30 -88 -6
-27 -28 -28 -33 -15 -53 94 -147 110 -194 110 -318 0 -104 -25 -195 -71 -260
-107 -151 -234 -219 -409 -219 -144 0 -259 48 -352 147 -91 98 -128 194 -128
335 0 107 24 187 81 270 21 32 39 61 39 65 0 12 -53 63 -66 63 -7 0 -35 -15
-63 -34 -199 -134 -468 -105 -627 66 -116 126 -157 282 -119 447 56 237 292
396 538 362 82 -12 136 -32 217 -85 l55 -35 33 32 c17 17 32 34 32 39 0 4 -18
33 -40 65 -61 86 -83 171 -78 296 3 92 7 109 39 178 98 206 310 312 540 269z"/>
<path d="M4723 7639 c-112 -43 -207 -169 -217 -289 -10 -115 26 -202 128 -308
l60 -63 -269 -269 c-290 -291 -296 -295 -383 -277 -56 11 -82 50 -82 124 0 43
5 58 28 84 38 42 104 51 162 20 22 -11 46 -21 53 -21 7 0 41 29 77 65 60 60
63 66 51 88 -7 13 -36 38 -64 55 -142 85 -320 61 -433 -60 -69 -74 -89 -125
-89 -233 0 -77 4 -98 26 -145 33 -69 94 -132 162 -168 47 -24 62 -27 152 -27
91 0 105 3 155 29 30 16 84 57 120 92 l66 63 271 -272 c236 -236 272 -277 278
-311 10 -48 -9 -112 -38 -131 -34 -22 -97 -28 -141 -13 -73 25 -99 128 -47
194 11 15 21 31 21 36 0 17 -123 138 -140 138 -41 0 -104 -102 -122 -198 -33
-176 100 -361 279 -391 283 -48 498 237 373 493 -11 23 -49 70 -85 106 -35 36
-65 70 -65 75 0 6 120 130 268 277 230 229 272 267 305 273 95 18 157 -28 157
-116 0 -60 -19 -101 -55 -117 -40 -18 -106 -15 -143 8 -18 11 -38 20 -45 20
-19 0 -137 -123 -137 -142 0 -19 44 -54 110 -89 39 -21 59 -24 145 -24 90 0
105 3 153 28 70 37 123 91 158 163 25 52 29 70 29 149 0 79 -3 97 -29 147 -35
70 -94 128 -166 165 -48 24 -66 28 -145 28 -117 -1 -162 -21 -261 -117 l-75
-72 -274 274 c-236 237 -274 280 -280 312 -10 51 0 85 35 119 25 25 36 29 87
29 65 0 95 -15 118 -60 22 -43 19 -92 -10 -134 -14 -20 -25 -40 -25 -45 0 -4
31 -38 69 -74 76 -74 85 -75 126 -22 49 65 68 124 68 211 1 72 -3 89 -31 147
-40 80 -112 148 -188 176 -72 28 -180 27 -251 0z m267 -954 l134 -135 -137
-137 -137 -137 -137 137 -137 137 134 135 c74 74 137 135 140 135 3 0 66 -61
140 -135z"/>
<path d="M2595 4678 c-3 -7 -4 -245 -3 -528 l3 -515 128 -3 127 -3 1 233 c0
175 3 227 11 211 6 -13 16 -23 23 -23 7 0 17 10 23 23 8 16 11 -36 11 -210 l1
-233 125 0 125 0 0 530 0 531 -92 -3 -91 -3 -47 -115 c-26 -63 -51 -114 -56
-113 -5 0 -30 52 -55 115 l-45 113 -92 3 c-68 2 -94 -1 -97 -10z"/>
<path d="M3320 4160 l0 -530 295 0 296 0 -3 118 -3 117 -167 3 -168 2 0 95 0
95 140 0 140 0 0 120 0 120 -140 0 -140 0 0 75 0 75 170 0 170 0 0 120 0 120
-295 0 -295 0 0 -530z"/>
<path d="M4020 4160 l0 -531 244 3 c269 3 269 3 320 72 20 27 21 41 24 441 3
462 3 460 -64 511 l-37 29 -244 3 -243 3 0 -531z m330 271 c6 -12 10 -117 10
-271 0 -154 -4 -259 -10 -271 -7 -12 -21 -19 -40 -19 l-30 0 0 290 0 290 30 0
c19 0 33 -7 40 -19z"/>
<path d="M4760 4160 l0 -530 125 0 125 0 0 530 0 530 -125 0 -125 0 0 -530z"/>
<path d="M5267 4676 c-49 -18 -64 -32 -88 -78 -19 -37 -20 -58 -17 -453 3
-400 4 -414 24 -441 50 -67 56 -69 269 -69 221 0 231 3 273 85 19 38 22 60 22
152 l0 108 -124 0 -123 0 -5 -50 c-3 -28 -8 -53 -11 -56 -7 -7 -56 -9 -61 -3
-7 7 -8 54 -7 317 l1 262 34 0 c39 0 46 -11 46 -76 l0 -44 125 0 125 0 0 113
c0 139 -19 187 -90 224 -40 21 -55 23 -199 23 -104 -1 -169 -5 -194 -14z"/>
<path d="M5950 4668 c-33 -17 -51 -35 -67 -68 -23 -44 -23 -47 -23 -507 l0
-463 130 0 130 0 0 215 0 215 35 0 35 0 0 -215 0 -215 130 0 130 0 0 463 0
464 -23 43 c-16 30 -37 51 -67 67 -40 21 -55 23 -204 23 -148 0 -166 -2 -206
-22z m240 -293 l0 -75 -35 0 -35 0 0 68 c0 38 3 72 7 75 3 4 19 7 35 7 l28 0
0 -75z"/>
<path d="M6600 4160 l0 -530 255 0 256 0 -3 118 -3 117 -127 3 -128 3 0 409 0
410 -125 0 -125 0 0 -530z"/>
<path d="M4340 3429 c-187 -102 -314 -358 -203 -408 31 -14 38 -9 23 19 -17
33 -2 102 39 171 58 98 185 203 256 211 29 3 30 2 28 -39 -3 -68 -96 -238
-278 -508 l-47 -69 29 -23 c15 -13 33 -23 39 -23 6 0 40 42 74 93 73 107 161
219 168 212 2 -2 -6 -29 -18 -59 -24 -57 -23 -79 8 -95 15 -8 26 0 69 57 28
37 63 78 78 92 l26 24 -30 -64 c-17 -36 -33 -83 -37 -106 -5 -34 -2 -45 21
-72 15 -18 34 -32 43 -32 15 1 15 2 -1 14 -44 33 24 180 170 365 32 42 40 58
31 68 -26 32 -55 14 -177 -113 -67 -70 -121 -124 -121 -120 0 6 35 63 107 173
14 21 13 23 -12 33 -36 14 -66 -9 -160 -119 -38 -44 -71 -79 -72 -77 -2 2 26
54 61 116 104 181 114 234 54 285 -42 35 -97 33 -168 -6z"/>
<path d="M5117 3401 c-19 -22 -41 -49 -47 -61 -11 -21 -17 -22 -81 -18 -38 3
-72 1 -75 -3 -3 -5 -23 -9 -44 -9 -21 0 -42 -4 -45 -10 -4 -6 8 -10 29 -10 20
0 36 -2 36 -5 0 -3 -12 -27 -27 -55 -27 -47 -27 -50 -10 -67 16 -16 19 -16 27
-3 4 8 23 38 42 65 28 43 38 50 70 53 l36 3 -69 -138 c-72 -143 -141 -233
-180 -233 -18 0 -19 2 -4 38 9 20 27 54 40 74 28 42 31 58 13 76 -22 22 -33
12 -76 -70 -44 -87 -49 -107 -32 -139 17 -31 54 -23 107 26 l50 44 -10 -49
c-11 -59 -4 -96 23 -110 18 -10 20 -8 20 20 0 40 41 163 81 243 17 34 33 63
34 65 1 1 13 -2 26 -7 13 -5 32 -12 42 -15 17 -6 17 -8 -5 -37 -48 -65 -48
-72 0 -20 43 47 53 53 77 47 l27 -7 -35 -42 c-70 -85 -117 -161 -117 -187 0
-34 41 -74 67 -66 10 3 45 33 78 66 l59 60 13 -30 c23 -55 63 -35 150 75 23
29 30 34 26 18 -8 -34 5 -71 27 -78 27 -9 73 18 110 65 39 49 33 67 -6 20 -42
-50 -54 -60 -70 -60 -18 0 -18 1 8 55 17 35 20 50 12 63 -19 30 -39 19 -108
-61 -37 -42 -72 -75 -76 -72 -12 8 -3 31 38 93 40 62 77 93 100 86 10 -4 6 5
-11 20 -15 14 -32 26 -37 26 -17 0 -72 -54 -138 -138 -84 -106 -138 -162 -157
-162 -23 0 -6 33 60 121 36 46 65 93 65 105 0 24 -24 48 -62 60 l-27 9 40 63
c65 102 62 152 -10 152 l-24 0 21 23 c26 27 28 52 6 61 -29 11 -42 6 -77 -33z
m79 -155 c3 -8 -9 -36 -26 -61 -28 -40 -36 -46 -63 -43 -44 4 -46 33 -7 81 24
27 39 37 61 37 17 0 32 -6 35 -14z"/>
</g>
</svg>
